<svg width="63" height="25" viewBox="0 0 63 25" fill="none" xmlns="http://www.w3.org/2000/svg">
<path d="M22.6074 10.1699C23.1274 9.42868 23.7685 8.89323 24.5312 8.5625C25.2933 8.23274 26.2569 8.06641 27.4199 8.06641H29.1338V12.2158H27.3887C26.0851 12.2158 25.056 12.567 24.3047 13.2695C23.6132 13.9155 23.2412 14.9854 23.1855 16.4775H27.5908L25.5303 24.9082H21.0332L23.0645 16.6025H18.6064V8.06641H22.0059L22.6074 10.1699ZM5.07129 9.2998C5.73477 8.77687 6.48611 8.37083 7.32715 8.08203C8.17019 7.79128 9.08385 7.64453 10.0674 7.64453C11.649 7.64459 13.0411 8.00257 14.2432 8.71484C15.4472 9.4252 16.3961 10.4024 17.0889 11.6455C17.7807 12.8896 18.127 14.3235 18.127 15.9473C18.1269 17.5708 17.7806 19.0099 17.0889 20.2637C16.3961 21.5185 15.4473 22.5025 14.2432 23.2148C13.0411 23.9251 11.6489 24.2802 10.0674 24.2803C8.9218 24.2803 7.86741 24.0847 6.90527 23.6943C5.9423 23.3021 5.1107 22.7562 4.41113 22.0557L3.90039 23.8584H0.5V1.59863H5.07129V9.2998ZM34.0342 23.8584H29.4639V8.06641H34.0342V23.8584ZM40.1992 13.749H41.375C42.3369 13.749 43.063 13.5954 43.5527 13.2852C44.0445 12.9758 44.4407 12.3782 44.7432 11.4932L45.8555 8.06641H51.2959C52.1595 8.06641 52.7463 7.92556 53.0566 7.64453C53.3687 7.36349 53.5841 6.8232 53.7041 6.02148L53.9736 3.97559H57.5254V8.06641H61.8584V11.7939H57.5254V17.1807C57.5255 18.9866 58.4079 19.8886 60.1719 19.8887H62.0654V23.8584H59.1807C57.1747 23.8584 55.6339 23.3427 54.5596 22.3096C53.4872 21.2772 52.9512 19.7973 52.9512 17.8711V11.7939H49.8828V10.5469L48.9541 13.0898C48.4516 14.4929 47.7805 15.566 46.9404 16.3096L51.4795 23.8584H46.1562L42.666 17.8438H40.1992V23.8584H35.6289V1.59863H40.1992V13.749ZM9.25098 11.5557C7.96803 11.5557 6.92115 11.9676 6.10938 12.7891C5.29751 13.6117 4.8916 14.6651 4.8916 15.9473C4.89167 17.2303 5.29758 18.2829 6.10938 19.1045C6.92118 19.927 7.96794 20.3378 9.25098 20.3379C10.5546 20.3379 11.6071 19.9271 12.4092 19.1045C13.213 18.283 13.6152 17.2302 13.6152 15.9473C13.6152 14.6651 13.2132 13.6117 12.4092 12.7891C11.6071 11.9674 10.5546 11.5557 9.25098 11.5557ZM31.7471 0.0917969C32.6311 0.091798 33.3442 0.359825 33.8857 0.892578C34.4263 1.42338 34.6982 2.11011 34.6982 2.95312C34.6982 3.7942 34.4263 4.4809 33.8857 5.01367C33.3442 5.5445 32.6311 5.81055 31.7471 5.81055C30.8854 5.81055 30.1793 5.5445 29.6279 5.01367C29.0757 4.4809 28.7998 3.79421 28.7998 2.95312C28.7998 2.11011 29.0757 1.42338 29.6279 0.892578C30.1792 0.359834 30.8855 0.0917969 31.7471 0.0917969Z" fill="#F1EDED"/>
</svg>
